<svg xmlns="http://www.w3.org/2000/svg" viewBox="0 0 120 120" fill="none">
  <rect width="120" height="120" rx="12" fill="#FFF7ED"/>
  <path d="M60 30c-2 0-4 1-5 3l-15 30c-1 2 0 5 2 6h36c2-1 3-4 2-6L65 33c-1-2-3-3-5-3z" fill="#F97316" opacity="0.8"/>
  <ellipse cx="60" cy="75" rx="25" ry="8" fill="#F97316" opacity="0.6"/>
  <path d="M38 70c0-3 10-6 22-6s22 3 22 6v5c0 3-10 6-22 6s-22-3-22-6v-5z" fill="#FDBA74"/>
  <circle cx="50" cy="55" r="3" fill="#FFF"/>
  <circle cx="65" cy="50" r="2.5" fill="#FFF"/>
  <circle cx="55" cy="45" r="2" fill="#FFF"/>
</svg>
